<svg width="1584" height="525" viewBox="0 0 1584 525" fill="none" xmlns="http://www.w3.org/2000/svg">
<g clip-path="url(#clip0_950_305)">
<g clip-path="url(#clip1_950_305)">
<path d="M961 420C963.125 415.716 963.103 411.187 963.078 406.499C962.923 377 962.697 347.495 963.18 318.003C963.33 308.852 964.136 299.675 963.958 290.5C963.782 281.489 962.477 272.529 963.174 262.995C950.498 263.766 938.5 264.182 926.021 263.951C925.895 311.665 926.419 358.843 925 406" stroke="black" stroke-width="3" stroke-linecap="round" stroke-linejoin="round"/>
<path d="M1432.5 495.5C1430.88 490.885 1431.75 486.209 1431.92 481.497C1432.21 473.008 1431.85 464.496 1432.06 456.001C1432.17 451.527 1429.32 451.806 1426.5 452.027C1414.01 453.006 1401.49 452.744 1389 452.385C1370.33 451.848 1351.67 452.118 1333 452.046C1317.67 451.987 1302.33 452.258 1287 452.513C1220.34 453.622 1153.67 452.696 1087 452.991C1073.67 453.051 1060.32 452.581 1047 453.074C996.008 454.966 944.999 453.453 894.001 454.039C877.982 454.223 862.024 452.199 846.001 453.012C845.157 453.055 844.195 452.638 843.348 453.606C842.486 454.359 842.991 455.522 843.037 456.498C843.674 469.86 841.977 483.158 841.996 496.5C842.002 500.143 844.336 503.539 847.507 503.95C849.859 504.255 851.041 502.885 851.005 500.5C850.982 499 851.163 497.479 850.974 496.003C849.841 487.17 854.578 481.724 861.65 477.072C864.527 480.545 869.218 481.091 872.001 484.5" stroke="black" stroke-width="3" stroke-linecap="round" stroke-linejoin="round"/>
<path d="M1325.5 392C1324.7 390.397 1325.01 388.675 1325.01 387C1324.99 372 1324.26 356.953 1325.22 342.014C1326.1 328.32 1325.67 314.667 1325.96 300.999C1325.99 299.327 1326.72 297.389 1324.92 295.813C1314.74 300.847 1305.89 308.029 1296.03 313.56C1294.15 314.619 1293.99 316.889 1293.99 319C1294.01 350.667 1294 382.334 1294 414C1294 415.943 1294.17 417.801 1296.2 419.611C1291.9 424.718 1285.32 424.148 1279.5 425.5" stroke="black" stroke-width="3" stroke-linecap="round" stroke-linejoin="round"/>
<path d="M1444 353.5C1442.28 358.167 1444.15 362.828 1444.11 367.501C1443.88 393.666 1444 419.833 1444.02 446C1444.02 446.511 1444.23 447.022 1444.45 448C1491.17 448 1537.83 448 1584.5 448" stroke="black" stroke-width="3" stroke-linecap="round" stroke-linejoin="round"/>
<path d="M2.5 509.5C4.10321 508.699 5.82549 509.015 7.50002 509.012C19.8333 508.99 32.2379 509.844 44.484 508.81C64.8291 507.093 85.1843 508.987 105.51 507.66C108.901 507.438 112.51 507.725 115.997 508.032C119.816 508.368 121.134 506.529 121.019 503C120.926 500.16 121 497.314 121 494.376C132.975 493.43 144.462 492.866 156 492.851C159.535 492.846 159.263 496.772 163.495 496.63C166.457 494.324 164.82 489.263 166.723 485C168.496 485 170.504 485 172.082 485C173.524 483.456 172.961 482.157 172.964 481C172.977 476.422 172.154 472.549 178.878 470.584C184.609 468.91 189.756 464.748 195.985 463.431C197.702 463.068 199.325 461.988 200.462 460.537C205.449 465.063 212.18 465.468 218.007 467.983C220.531 469.072 223.425 469.238 224.138 472.974C224.593 475.36 227.531 474.965 230 475.149C230 477.828 230 480.173 230 483C235.489 483 240.511 483 246.034 483C245.078 487.756 247.585 488.212 251.002 488.052C255.499 487.842 260.012 488 263.649 488C265.331 487 265.069 486.157 264.973 485.504C264.179 480.108 266.584 478.66 271.505 479.981C274.937 480.901 277.567 478.428 280.46 477.388C285.318 475.642 290.48 474.659 295.222 471.801C299.335 474.774 303.971 476.667 308.953 478.156C314.582 479.839 318.544 485.045 324.481 486.574C326.196 487.016 326.033 488.934 326.016 490.501C325.969 494.833 326.058 499.168 325.978 503.5C325.931 506.041 326.344 508.011 329.5 508.007C340.836 507.99 352.172 508 363.92 508C364.16 503.832 363.303 499.758 365.612 496.582C366.611 495.208 368.833 495.968 370.204 496.172C372.875 499.817 369.961 504.335 372.752 507.642C376.202 507.026 377.231 505.084 377.035 501.998C376.76 497.672 377.087 493.341 376.575 488.992C375.913 483.37 377.191 482.223 383 481.988C383.514 481.967 384.022 481.773 384.75 481.611C384.75 477.013 384.75 472.507 384.75 468.061C387.886 467.271 390.482 466.018 393.64 468.308C395.357 469.554 398.499 468.962 401 468.977C410.166 469.035 419.335 468.897 428.499 469.069C430.96 469.116 433.151 468.212 435.501 468.008C439.864 467.629 440.946 468.611 440.993 473C441.027 476.176 441 479.351 441 483C443.496 483 445.504 483 448.5 483C448.5 489.316 448.5 495.158 448.5 501C448.5 502 448.098 503.318 448.584 503.934C449.588 505.206 447.71 508.12 451.001 508.023C454.259 507.927 454.01 505.674 454 503.5C453.999 503.334 454.006 503.167 453.999 503C453.666 495.11 454.815 496.611 461 497.579C461 500.818 461 504.184 461 507.659C466.952 508.618 472.556 507.247 478 508.5" stroke="black" stroke-width="3" stroke-linecap="round" stroke-linejoin="round"/>
<path d="M1081 442.5C1080.71 414.992 1082.2 387.512 1082.27 360.001C1082.29 348.702 1082.83 337.338 1082.97 326C1082.98 324.847 1083.52 323.544 1082.32 322.25C1069.83 322.25 1057.17 322.25 1044 322.25C1044 324.156 1044 325.828 1044 327.5C1044 343.333 1043.9 359.168 1044.07 374.999C1044.12 378.875 1042.88 380.476 1039 380.021C1036.35 379.711 1033.62 380.472 1031 379.5" stroke="black" stroke-width="3" stroke-linecap="round" stroke-linejoin="round"/>
<path d="M1316 489.5C1304.33 489.36 1292.64 487.949 1280.44 490.609C1280.42 495.392 1276.81 498.761 1272.34 501.781C1268.5 500.621 1264.17 500.508 1259.45 501.826C1255.1 503.043 1249.68 499.231 1245.69 505.794C1244.45 494.895 1243.6 485.23 1244.05 475.25C1241.02 475.25 1238.51 475.25 1235.83 475.25C1234.49 485.452 1235.17 496.008 1234.97 506.75C1215.83 506.75 1197.17 506.75 1178.18 506.75C1178.09 496.982 1174.38 487.696 1176.59 478.066C1173.66 475.032 1170.54 477.006 1166.8 477.353C1170.02 487.387 1165.76 496.805 1165.9 506.75C1160.83 506.75 1156.17 506.75 1151.19 506.75C1150.69 504.233 1151.31 501.742 1150.12 499.439C1149.55 498.336 1149.91 496.883 1148 496.972C1147.51 496.994 1146.61 496.742 1146.56 496.489C1145.02 488.427 1136.68 489.023 1132 485" stroke="black" stroke-width="3" stroke-linecap="round" stroke-linejoin="round"/>
<path d="M1129 421.5C1130.5 422.833 1131.05 425.237 1134.74 425.774C1133.73 418.473 1136.1 411.357 1132.51 404.494C1131.02 401.63 1132.59 398.759 1135.43 399.709C1138.16 400.622 1141.41 397.446 1143.45 401.171C1140.87 407.773 1142.47 414.65 1141.87 421.706C1147.26 420.727 1148.54 418.124 1148.05 413.995C1147.35 408.083 1148.51 402.445 1150.9 396.956C1151.57 395.414 1151 393.333 1151 391.5C1151 375.5 1151 359.5 1151 343.5C1151 341.817 1151 340.133 1151 338.047C1131.05 337.263 1111.61 336.101 1092 340.631C1092 344.314 1092 347.157 1092 350C1092 366.333 1091.82 382.669 1092.06 398.999C1092.22 409.171 1093 419.333 1093.5 429.5" stroke="black" stroke-width="3" stroke-linecap="round" stroke-linejoin="round"/>
<path d="M1132 482.5C1132.12 485.958 1129.6 486.878 1127.03 488.057C1123.3 489.76 1119.09 491.111 1117.57 495.524C1117.08 496.949 1116.25 496.343 1115.5 496.494C1113.56 496.886 1113.03 498.008 1112.93 499.997C1112.54 507.869 1111.35 508.613 1103.5 506.5C1102.35 498 1102.31 498.563 1093.01 497.875C1076.84 496.681 1060.66 497.281 1044.53 496.909C1043.15 493.652 1045.34 490.016 1041.98 487.043C1041.02 492.037 1037.29 492.034 1033.5 492.01C1027.83 491.973 1022.16 492 1016.66 492C1015.68 494.592 1015.52 496.771 1015.48 499C1015.4 504.293 1015.36 504.292 1009.31 503.475C1009.08 502.017 1008.84 500.502 1008.54 498.675C1004.25 500.531 1000.19 500.091 996.531 497.457C995.232 496.522 994.81 497.4 993.982 497.974C992.017 499.337 989.717 498.994 987.5 498.998C985.927 493.617 980.772 492.668 968 495.615C968 497.173 968 498.863 968 500.75C965.5 500.75 963.5 500.75 961 500.75C961 496.848 960.883 493.169 961.035 489.501C961.171 486.194 959.806 484.834 956.499 484.965C952.671 485.116 948.832 485.072 945.001 484.976C942.141 484.905 940.899 486.141 940.977 489.001C941.073 492.506 941 496.016 941 498.949C939.167 500.966 937.833 499.32 936.5 499.496C935.085 492 935.085 492 927 492C921.833 492 916.667 492 911.5 492C904.379 492 904.379 492 903.489 485.419C896.797 483.52 890.77 486.767 884.517 488.082C882.561 488.494 881.555 490.211 881.958 492.507C882.189 493.821 882 495.208 882 496.75C879.167 496.75 876.833 496.75 874.386 496.75C873.542 492.886 873.922 489.029 872.5 485.5" stroke="black" stroke-width="3" stroke-linecap="round" stroke-linejoin="round"/>
<path d="M1584.5 453C1537.83 452.612 1491.16 453.947 1444 451.956C1444 466.329 1444 480.164 1444 494" stroke="black" stroke-width="3" stroke-linecap="round" stroke-linejoin="round"/>
<path d="M730.5 398C729.699 396.397 730.014 394.675 730.012 393C729.994 373.667 729.615 354.322 730.201 335.006C730.417 327.869 730.838 320.656 731.058 312.598C737.506 315.797 743.225 318.707 749.006 321.488C759.151 326.367 769.25 331.358 779.545 335.899C783.255 337.536 783.828 339.796 784.133 343.489C785.701 362.486 784.599 381.502 785.089 400.498C785.149 402.809 783.531 405.296 785.5 407.5" stroke="black" stroke-width="3" stroke-linecap="round" stroke-linejoin="round"/>
<path d="M1201.5 371.5C1202.05 361.987 1202.91 352.472 1201.03 342.995C1200.83 342.033 1200.95 340.997 1201.01 340C1201.76 327.304 1199.63 314.682 1200.05 302.002C1200.13 299.593 1199.25 297.703 1197.47 296.549C1185.28 288.648 1173.01 280.885 1160 272.591C1160 275.814 1160 278.157 1160 280.5C1160 296.667 1160 312.833 1160 329C1160 348.333 1160 367.667 1160 387C1160 394.487 1159.66 394.87 1152 396" stroke="black" stroke-width="3" stroke-linecap="round" stroke-linejoin="round"/>
<path d="M522.002 377C519.998 366.553 520.79 355.971 521.198 345.508C521.557 336.321 522.758 327.115 524.274 317.962C525.066 313.176 523.981 307.889 522.857 303.033C521.87 298.767 522.259 294.683 521.928 290.25C537.502 290.25 552.502 290.25 567.51 290.25C567.61 333.17 565.018 375.819 566.219 418.94C573.335 419.005 580.168 419.221 587.002 418.5" stroke="black" stroke-width="3" stroke-linecap="round" stroke-linejoin="round"/>
<path d="M701.001 455C700.668 457.667 700.026 460.341 700.09 462.998C700.15 465.513 698.794 468.405 701.485 470.52C702.653 471.438 702.03 472.868 701.951 473.996C701.573 479.338 702.991 484.651 702.046 490.008C701.676 492.112 702.174 494.217 704.996 493.952C707.713 493.697 709.952 495.244 713.001 495.24C713.001 498.817 713.001 502.183 713.001 505.75C721.168 505.75 728.834 505.75 736.751 505.75C737.381 503.076 736.339 500.268 737.947 498.203C747.547 497.01 756.966 499.474 766.502 499.034C771.395 498.809 772.076 498.48 771.928 493.502C771.842 490.607 772.456 488.638 775.501 488" stroke="black" stroke-width="3" stroke-linecap="round" stroke-linejoin="round"/>
<path d="M1006.5 289.5C1014 289.962 1014 289.962 1014 297.5C1014 300 1014.02 302.5 1013.99 305C1013.98 306.134 1013.73 307.64 1015.02 307.934C1019.05 308.859 1017.96 311.975 1017.97 314.5C1018.03 329.333 1017.98 344.167 1018.03 359C1018.03 360.495 1017.51 362.092 1018.7 364C1022.15 364 1025.85 364 1029.85 364C1030.24 376.322 1030.62 388.161 1031 400" stroke="black" stroke-width="3" stroke-linecap="round" stroke-linejoin="round"/>
<path d="M1234.5 362C1237.51 362 1240.52 362 1244.11 362C1243.41 354.098 1244.84 346.834 1245.28 339.25C1257 339.25 1268.5 339.25 1280.09 339.25C1282.52 344.538 1280.6 350.375 1280.77 356.007C1281.37 375.995 1279.36 395.984 1280.01 416C1280.07 417.836 1280.33 419.667 1280.5 421.5" stroke="black" stroke-width="3" stroke-linecap="round" stroke-linejoin="round"/>
<path d="M1488.5 391C1488.84 388.995 1487.24 388.393 1486 387.494C1471.52 376.972 1458.44 364.772 1445 353C1444.19 347.954 1442.09 345.488 1436.99 348.99C1436.88 349.068 1436.61 349.071 1436.51 348.989C1435.19 347.911 1433.88 345.863 1432.08 347.582C1430.67 348.927 1431.48 351.181 1431.54 352.999C1432.51 384.329 1431.76 415.667 1431.98 447C1431.98 447.165 1431.67 447.333 1431 448C1424.17 448 1416.84 448 1409.5 448C1400.5 448 1391.5 448 1382.5 448C1373.5 448 1364.5 448.021 1355.5 447.957C1354.83 447.952 1354.17 447.333 1353.5 447" stroke="black" stroke-width="3" stroke-linecap="round" stroke-linejoin="round"/>
<path d="M613 354.5C604.018 353.379 594.998 354.302 586 354.004C583.572 353.923 582.374 355.619 583.109 357.456C584.779 361.627 583.868 365.838 583.937 370.001C584.122 381.165 584.049 392.334 583.977 403.5C583.946 408.334 583.667 413.167 583.5 418" stroke="black" stroke-width="3" stroke-linecap="round" stroke-linejoin="round"/>
<path d="M611.5 396.5C610.678 397.003 611.023 397.815 611.011 398.5C610.5 426.998 609.539 455.49 609.962 484.001C609.981 485.315 610.762 486.804 609.086 487.897C612.263 489.694 612.274 495.39 618 493.559C618 491.504 618 489.496 618 487C625.492 487 632.508 487 639.503 487C639.413 474.104 642.631 461.995 642.149 449.494C641.534 433.518 642.024 417.5 641.964 401.5C641.958 399.843 642.559 398.077 641.5 396.5" stroke="black" stroke-width="3" stroke-linecap="round" stroke-linejoin="round"/>
<path d="M1008 262.5C1006.82 264.712 1006.82 267.139 1007.04 269.497C1007.61 275.729 1007.25 282.249 1005.6 287.881C1003.72 294.244 1004.58 300.325 1004.03 306.503C1003.94 307.509 1003.9 308.962 1003.01 308.907C998.413 308.626 1000.05 312.024 1000.07 313.999C1000.22 330.524 998.064 346.972 999.211 364.195C993.167 363.592 987.833 364.702 982.5 363.5" stroke="black" stroke-width="3" stroke-linecap="round" stroke-linejoin="round"/>
<path d="M652.501 447C651.309 441.667 652.221 436.329 652.513 431.001C653.602 411.174 652.668 391.332 653.037 371.501C653.087 368.845 652.157 367.815 649.498 367.952C647.845 368.038 646.168 367.655 644.544 367.487C642.839 368.501 643.223 370.281 643.58 371.476C645.724 378.641 643.766 385.835 643.937 393.002C643.992 395.303 642.136 396.015 640.001 396.009C630.834 395.987 621.665 396.116 612.503 395.905C610.592 395.861 609.364 394.806 608.753 392.055C607.514 386.476 607.646 380.882 608.331 375.542C608.718 372.528 609.781 368.963 611.501 366" stroke="black" stroke-width="3" stroke-linecap="round" stroke-linejoin="round"/>
<path d="M467.499 441C464.875 432.836 458.941 428.404 451.029 425.905C448.986 425.259 447.05 425.004 444.999 425.004C418.332 424.998 391.665 424.901 364.999 425.069C358.163 425.112 351.237 425.481 344.536 426.703C340.781 427.388 337.398 429.969 334.929 433.451C332.564 436.786 332.213 441.175 329.02 444.024C328.071 444.87 328.879 445.99 328.894 447.002C329.061 457.999 328.999 469 328.999 480C328.248 481.471 326.652 481.154 325.482 481.429C320.777 482.531 318.027 480.289 318.009 475.5C317.974 466 317.299 456.436 318.155 447.014C319.611 430.998 318.49 414.997 318.978 398.999C319.047 396.741 318.906 394.657 317.624 392.428C315.248 388.298 317.225 385.719 321.999 385.995C322.663 386.033 323.332 386.013 323.999 385.998C330.937 385.842 331.317 386.309 328.441 392.473C327.708 394.046 328.041 395.511 328.035 397C327.973 410.333 328.02 423.667 327.978 437C327.971 439.162 328.04 441.267 328.999 443.25" stroke="black" stroke-width="3" stroke-linecap="round" stroke-linejoin="round"/>
<path d="M1406.5 377C1403.84 372.422 1406.36 367.668 1406.1 362.994C1405.71 356.016 1405.99 356 1399 356C1388.67 356 1378.33 356.108 1368 355.942C1364.24 355.882 1362.8 357.241 1362.96 361.001C1363.37 370.661 1362.39 380.349 1363.5 390" stroke="black" stroke-width="3" stroke-linecap="round" stroke-linejoin="round"/>
<path d="M1076 454C1076 465 1075.96 476 1076.05 487C1076.06 488.478 1074.83 491.109 1078 490.94C1080.48 490.807 1080.2 489.203 1080.14 486.996C1079.83 476.005 1080 465 1080 454" stroke="black" stroke-width="3" stroke-linecap="round" stroke-linejoin="round"/>
<path d="M1419 372C1419.2 397 1418.52 422.005 1419.5 447" stroke="black" stroke-width="3" stroke-linecap="round" stroke-linejoin="round"/>
<path d="M888.5 388.5C888.5 374.664 888.5 360.827 888.5 346.515C879.176 346.363 870.826 347.785 862.487 346.594C860.636 346.33 859.931 347.987 859.949 350.001C860.014 357.179 860.33 364.38 859 371.5" stroke="black" stroke-width="3" stroke-linecap="round" stroke-linejoin="round"/>
<path d="M362.5 416.5C371.801 417.61 381.132 418.067 390.5 418.018C404 417.948 417.5 418.009 431 417.988C432.675 417.986 434.397 418.301 436 417.5" stroke="black" stroke-width="3" stroke-linecap="round" stroke-linejoin="round"/>
<path d="M1061.25 430C1061.33 433.167 1061.57 436.338 1061.46 439.499C1061.34 443.127 1062.65 444.808 1066.5 444.548C1071.53 444.208 1076.53 443.879 1081.54 443.337C1087.02 442.743 1092.91 442.807 1098.49 443.599C1114.78 445.912 1131.19 444.706 1147.48 445.793C1156.14 446.371 1164.79 447.273 1173.49 447.627C1179.83 447.884 1186.17 447.925 1192.5 447.98C1201.5 448.058 1210.5 448 1219.5 448C1226.83 448 1234.17 448 1241.5 448C1247.17 448 1252.83 448 1258.5 448C1269.5 448 1280.5 448 1291.5 448C1300.17 448 1308.83 448 1317.5 448C1327.83 448 1338.17 448.019 1348.5 447.957C1349.17 447.953 1349.83 447.333 1350.5 447" stroke="black" stroke-width="3" stroke-linecap="round" stroke-linejoin="round"/>
<path d="M1406.25 379C1406.5 387.333 1407.11 395.675 1406.92 403.998C1406.63 416.697 1407.8 429.33 1407.98 442C1408.01 443.673 1408.3 445.397 1407.5 447" stroke="black" stroke-width="5" stroke-linecap="round" stroke-linejoin="round"/>
<path d="M475 301.5C476.687 304.629 476.391 308.171 476.927 311.512C478.68 322.443 477.927 333.492 477.998 344.5C478.011 346.5 478.298 348.556 477.935 350.488C477.262 354.073 483.436 356.532 479.492 360.492C476.345 363.649 478.118 367.553 478.185 370.996C478.253 374.478 478.363 377.999 478.475 381.501C478.491 381.995 477.918 382.867 478.036 382.947C482.429 385.933 479.503 389.32 479.354 393.014C478.918 403.8 477.82 414.724 480.004 425.499C480.14 426.172 480.554 426.864 480.466 427.495C479.51 434.402 479.578 441.244 481.5 448" stroke="black" stroke-width="3" stroke-linecap="round" stroke-linejoin="round"/>
<path d="M246.498 354.5C245.586 362.796 246.779 370.926 248.52 378.995C249.346 382.822 248.735 386.673 249.019 390.498C249.308 394.388 248.194 398.329 250.785 402.145C251.764 403.587 250.107 406.661 250.044 409.001C249.899 414.331 250.023 419.667 249.99 425C249.967 428.667 252.677 431.904 250.277 436.157C248.778 438.812 249.998 443 249.998 446.5C249.998 450.167 249.998 453.833 249.998 457.5C249.998 461 249.972 464.5 250.017 468C250.027 468.841 249.636 469.806 250.781 470.808C254.439 471.543 258.567 470.336 262.469 471.488C262.867 474.566 259.476 478.468 264.498 480.5" stroke="black" stroke-width="3" stroke-linecap="round" stroke-linejoin="round"/>
<path d="M512.5 449C512.667 447.833 512.956 446.669 512.981 445.5C513.322 429.668 512.393 413.825 513.463 397.997C513.587 396.165 512.774 394.779 510.499 394.988C507.673 395.248 504.786 394.524 502 395.5" stroke="black" stroke-width="3" stroke-linecap="round" stroke-linejoin="round"/>
<path d="M1395.5 384C1396.3 385.603 1395.99 387.326 1395.99 389C1396.01 408.333 1396 427.667 1396 447" stroke="black" stroke-width="3" stroke-linecap="round" stroke-linejoin="round"/>
<path d="M755.5 429C754.358 419.194 755.417 409.314 754.87 399.262C745.349 398.491 736.188 397.982 726.543 399.051C723.394 392.505 725.944 385.259 724.645 377.907C716.833 378.355 709.178 377.449 701.495 378.46C698.36 378.872 695.153 378.697 692.003 379.025C680.856 380.184 669.676 379.975 658.5 380" stroke="black" stroke-width="3" stroke-linecap="round" stroke-linejoin="round"/>
<path d="M1387.5 472.5C1382.92 472.267 1381.58 478.097 1377.01 478.241C1376.62 478.253 1376.1 481.66 1376.04 483.501C1375.91 488.17 1376 492.845 1376 497.527C1373.83 498.187 1372.17 498.187 1370 497.527C1370 492.511 1370 487.489 1370 483C1369.33 482.333 1369.16 482.015 1369 482.022C1357.67 482.517 1357.9 479.084 1358 492.5C1358.01 494.183 1358 495.867 1358 497.75C1355.51 497.75 1353.51 497.75 1351.41 497.75C1350.53 495.383 1351 492.661 1351.05 490.001C1351.11 487.035 1349.93 486.104 1347 485.913C1341.71 485.567 1336.7 487.313 1331 487.151C1331 489.827 1331 492.173 1331 493.959C1329.64 495.514 1328.49 494.955 1327.5 494.97C1320.52 495.078 1320.58 495.055 1320.97 487.998C1321.14 484.841 1321 481.667 1321 478.5" stroke="black" stroke-width="3" stroke-linecap="round" stroke-linejoin="round"/>
<path d="M526 320.5C528.453 323.842 526.918 327.881 527.673 331.567C528.526 335.733 529.513 340.123 529.475 344.5C529.389 354.167 529.134 363.833 529.039 373.5C529.026 374.818 528.258 376.535 529.535 377.451C533.141 380.036 530.666 382.506 530.272 385.535C529.161 394.101 528.001 403.075 529.515 411.406C530.381 416.173 530.019 420.469 530.011 425C529.983 441.333 530.006 457.667 529.983 474C529.981 474.84 530.362 475.806 528.998 477C524.01 477 518.505 476.954 513 477.011C505.561 477.088 503.798 478.437 502.049 485.512C501.779 486.607 502.039 487.787 500.5 488.001C495.902 488.64 496.423 492.521 496.09 495.51C495.704 498.967 496.007 502.5 495.979 506C495.977 506.168 495.667 506.333 494.976 507.024C489.773 506.32 484.237 508.297 478.5 508" stroke="black" stroke-width="3" stroke-linecap="round" stroke-linejoin="round"/>
<path d="M832 359.5C833.658 359.751 834.997 360.638 837.037 360.159C841.293 359.161 843.667 361.727 843.484 366.499C842.685 387.329 843.09 408.166 843.021 429C843.015 430.866 842.452 432.887 844 434.5" stroke="black" stroke-width="3" stroke-linecap="round" stroke-linejoin="round"/>
<path d="M274 320.5C275.544 329.943 277.045 339.387 277.009 349C276.97 359 277 369 277 379" stroke="black" stroke-width="3" stroke-linecap="round" stroke-linejoin="round"/>
<path d="M272.001 320.5C269.701 323.507 270.954 327.203 270.23 330.549C267.604 342.683 267.708 355.116 268.013 367.5C268.107 371.335 268.335 375.167 268.501 379" stroke="black" stroke-width="3" stroke-linecap="round" stroke-linejoin="round"/>
<path d="M1009.5 231.5C1009.5 231.667 1009.51 231.835 1009.5 232C1008.59 241.487 1007.63 251.298 1009.42 260.418C1011.3 270.066 1010.3 279.502 1011 289" stroke="black" stroke-width="3" stroke-linecap="round" stroke-linejoin="round"/>
<path d="M178 396.5C176.081 399.746 172.583 400.631 169.481 401.954C161.562 405.332 155.714 410.972 150.984 417.989C149.295 420.495 151.045 424.689 146.814 425.843C142.935 422.568 142.866 419.147 146.523 400.883C143.432 397.475 139.384 400.81 136.16 399.379C134.793 400.417 134.484 402.131 135.086 402.935C138.503 407.498 136.546 412.641 136.962 417.503C137.106 419.181 136.968 420.844 138.655 422.111C136.67 424.599 134.558 426.459 136.693 430.656C138.512 434.234 138.88 439.586 137.578 443.354C136.695 445.908 133.324 448.492 130.969 450.971C130.162 451.82 129.61 453.248 128 453" stroke="black" stroke-width="3" stroke-linecap="round" stroke-linejoin="round"/>
<path d="M776.002 475.5C776.002 478 775.964 480.501 776.013 483C776.059 485.326 775.165 488.056 778.993 488.568C781.058 488.844 781.081 490.734 781.027 492.501C780.935 495.507 781.002 498.518 781.002 501.75C783.835 501.75 786.168 501.75 789.002 501.75C789.002 499.504 789.002 497.496 789.002 494.821C792.683 495.395 795.878 494.045 799.052 495.915C799.655 496.271 800.819 496.334 800.946 497.01C801.888 502.049 806.576 500.532 809.531 501.939C812.487 503.347 816.394 501.544 819.002 504.5" stroke="black" stroke-width="3" stroke-linecap="round" stroke-linejoin="round"/>
<path d="M809 388C816.353 383.352 820.662 375.628 827.074 370.085C831.573 366.195 831.247 361.468 831.602 355.865C824.5 356.649 818 354.258 811 356.588C811 358.156 811 359.828 811 361.5C811 362.5 811.43 363.871 810.935 364.443C805.096 371.191 809.084 379.178 808.093 386.512C807.801 388.669 807.417 390.129 805.556 391.572C798.913 396.721 792.56 402.241 785.972 407.463C783.28 409.597 782.61 411.563 783.851 415.053C785.602 419.977 784.421 425.343 784.302 430.495C784.278 431.527 784.881 432.5 784.5 433.5" stroke="black" stroke-width="3" stroke-linecap="round" stroke-linejoin="round"/>
<path d="M1445 364C1450.67 368 1456.26 372.106 1462.02 375.977C1472.26 382.867 1483.05 388.775 1493.87 394.742C1509.54 403.39 1525.03 412.357 1540.76 420.931C1550.88 426.446 1561 431.826 1571.52 436.445C1575.71 438.281 1580.17 439.5 1584.5 441" stroke="black" stroke-width="3" stroke-linecap="round" stroke-linejoin="round"/>
<path d="M643 448C663.348 447.45 683.662 448.921 704 449C705.26 449.005 706.583 448.792 707.5 450" stroke="black" stroke-width="3" stroke-linecap="round" stroke-linejoin="round"/>
<path d="M481 360C485.667 360.934 490.32 360.564 495.004 360.032C500.174 359.444 501.048 360.272 500.985 365.5C500.82 379.18 501.055 392.848 502 406.5" stroke="black" stroke-width="3" stroke-linecap="round" stroke-linejoin="round"/>
<path d="M830 448C812.166 448.088 794.327 447.687 776.5 448.5" stroke="black" stroke-width="3" stroke-linecap="round" stroke-linejoin="round"/>
<path d="M1104.5 341.5C1104.06 348.768 1107.13 355.455 1107.95 362.505C1108.24 364.971 1108 367.5 1108 370C1108 373.167 1107.15 376.642 1108.16 379.443C1111.29 388.1 1106.48 396.485 1107.94 405.01C1108.31 407.173 1107.64 409.43 1109.96 411.058C1111.67 412.263 1111.46 413.951 1110.01 415.51C1107.11 418.642 1107.06 421.89 1110.03 424.975C1111.45 426.461 1110.72 427.874 1110.59 429.507C1110.32 432.823 1108.82 436.267 1111 439.5" stroke="black" stroke-width="3" stroke-linecap="round" stroke-linejoin="round"/>
<path d="M471.499 448C470.97 459.011 470.12 470.015 471.94 481.01C472.342 483.443 471.996 486 471.999 488.5C472.007 495.5 472.008 495.5 478.999 495.5" stroke="black" stroke-width="3" stroke-linecap="round" stroke-linejoin="round"/>
<path d="M830.5 368C831.746 372.628 830.871 377.356 830.875 382C830.887 397.832 830.667 413.681 830.73 429.499C830.822 452.663 830.755 475.834 831 499" stroke="black" stroke-width="3" stroke-linecap="round" stroke-linejoin="round"/>
<path d="M125.5 465.5C121.334 465.667 117.143 465.626 113.012 466.099C111.283 466.297 110.014 467.257 108.779 469.371C103.548 478.324 107.016 487.836 106.056 497.006C105.71 500.303 106 503.667 106 507" stroke="black" stroke-width="3" stroke-linecap="round" stroke-linejoin="round"/>
<path d="M855.5 381.5C854.366 392.819 855.174 404.167 855.06 415.501C855.004 420.993 854.398 426.528 855.5 432" stroke="black" stroke-width="3" stroke-linecap="round" stroke-linejoin="round"/>
<path d="M738.5 477.5C740.21 483.666 739.453 484.991 734.465 484.497C732.624 481.922 736.605 476.217 730.498 476.115C725.38 476.03 727.656 480.905 726.747 483.698C718.747 485.726 710.876 485.163 703 484.5" stroke="black" stroke-width="3" stroke-linecap="round" stroke-linejoin="round"/>
<path d="M1383.5 389.5C1384.66 396.142 1383.87 402.835 1383.96 409.501C1384.11 421.165 1383.99 432.833 1384.02 444.5C1384.02 445.334 1384.33 446.167 1384.5 447" stroke="black" stroke-width="3" stroke-linecap="round" stroke-linejoin="round"/>
<path d="M1193.5 358.5C1193.33 359.667 1192.96 360.847 1193.03 361.998C1193.4 367.498 1191.4 370.414 1186 372C1174.14 375.478 1166.18 383 1163.17 395.044C1162.6 397.317 1159.91 396.397 1160 398.5" stroke="black" stroke-width="3" stroke-linecap="round" stroke-linejoin="round"/>
<path d="M594 377C596.436 384.663 596.487 392.576 596.519 400.5C596.527 402.678 595.659 405.203 598.493 406.516C599.361 406.918 599.168 407.916 598.958 408.484C597.036 413.678 598.952 418.877 599.175 423.992C600.069 444.495 599.975 464.995 599.986 485.5C599.988 488.304 600.223 490.407 604.025 489.072C605.709 488.48 607.667 488.667 609.5 488.5" stroke="black" stroke-width="3" stroke-linecap="round" stroke-linejoin="round"/>
<path d="M1036 398C1037.24 400.524 1039.99 400.177 1042.03 400.905C1051.88 404.418 1056 409.835 1056 420C1056 426.667 1056 433.333 1056 440" stroke="black" stroke-width="3" stroke-linecap="round" stroke-linejoin="round"/>
<path d="M539 413.5C538.4 414.033 538.007 414.56 537.964 415.498C537.35 428.834 536.67 442.167 535.981 455.499C535.964 455.84 535.667 456.167 535.284 456.934C530.315 456.543 525.293 459.125 520.107 457.649C519.506 445.505 520.722 433.485 519.5 421.5" stroke="black" stroke-width="3" stroke-linecap="round" stroke-linejoin="round"/>
<path d="M1349 397C1334.07 402.844 1319.36 409.282 1304 413.993C1302.43 414.474 1300.94 415.031 1300 416.5" stroke="black" stroke-width="3" stroke-linecap="round" stroke-linejoin="round"/>
<path d="M682 335.5C683.331 342.807 681.636 350.182 682.757 357.628C677.59 357.416 676.833 360.218 676.874 364.501C676.921 369.329 676 374.167 675.5 379" stroke="black" stroke-width="3" stroke-linecap="round" stroke-linejoin="round"/>
<path d="M830 454C813.167 454 796.333 453.989 779.5 454.021C778.166 454.024 776.833 454.333 775.5 454.5" stroke="black" stroke-width="3" stroke-linecap="round" stroke-linejoin="round"/>
<path d="M481.5 449.5C480.718 450.9 480.487 452.385 480.471 454C480.358 465.667 480.221 477.334 479.977 489C479.852 495.007 478.469 500.952 479 507" stroke="black" stroke-width="3" stroke-linecap="round" stroke-linejoin="round"/>
<path d="M1502 498.5C1497.01 496.622 1492.1 495.708 1487.49 499.492C1487.21 499.722 1486.77 500.045 1486.51 499.968C1482.4 498.771 1479.73 499.4 1479.32 504.486C1479.24 505.521 1476.83 505.231 1475.25 504.43C1474.85 502.036 1474.52 499.496 1473.97 497.006C1473.34 494.123 1476.04 490.024 1471.48 488.559C1465.15 486.523 1459 486.117 1454.48 492.489C1453.28 494.182 1455.2 497.241 1451.52 498.012C1448.58 494.936 1445.14 494.323 1440.42 495.748C1436.24 497.013 1431.18 495.146 1427.48 498.979C1427.32 499.145 1426.77 499.119 1426.51 498.982C1420.38 495.777 1413.63 500.632 1407.24 497.099C1407.01 493.515 1406.98 489.476 1406.44 485.508C1405.72 480.179 1404.78 480.876 1400.28 475.753C1397.47 472.554 1392.57 473.648 1391 469.5" stroke="black" stroke-width="3" stroke-linecap="round" stroke-linejoin="round"/>
<path d="M126.001 354.5C125.886 357.503 126.196 360.503 125.542 363.509C124.755 367.13 126.79 370.452 127.273 373.963C128.197 380.682 127.802 387.327 127.999 394C128.018 394.666 127.833 395.387 128.026 395.992C131.061 405.503 126.652 414.976 127.901 424.513C128.34 427.868 132.012 431.436 129.34 434.352C125.484 438.56 126.992 443.171 127.171 447.493C127.43 453.755 127.074 459.87 126.042 466.007C125.91 466.79 126.335 467.667 126.501 468.5" stroke="black" stroke-width="3" stroke-linecap="round" stroke-linejoin="round"/>
<path d="M1350.5 395.5C1349.55 393.619 1348.79 391.968 1346 391.921C1331.13 391.674 1316.36 393.846 1300.86 392.846C1301.31 400.5 1300.42 407.5 1301.5 414.5" stroke="black" stroke-width="3" stroke-linecap="round" stroke-linejoin="round"/>
<path d="M867.499 387.5C866.365 394.979 866.885 402.517 867.12 409.996C867.351 417.347 865.541 424.667 866.999 432" stroke="black" stroke-width="3" stroke-linecap="round" stroke-linejoin="round"/>
<path d="M539.5 401.5C540.667 413.333 541.885 425.162 542.962 437.003C543.218 439.814 543.031 442.667 542.993 445.5C542.92 450.877 545.031 453.395 550.5 453.441C558.332 453.506 566.168 453.209 573.999 452.981C577.65 452.875 581.05 453.164 584.729 450.868C587.013 449.443 587.506 448.606 587.504 446.5C587.496 434.5 587.496 422.5 587.505 410.5C587.506 408.846 587.273 407.25 588.95 405.936C590.45 404.76 590.256 402.674 589.952 401.009C588.366 392.334 589.87 384.085 592.984 375.994C593.931 373.534 592.915 371 593 368.5" stroke="black" stroke-width="3" stroke-linecap="round" stroke-linejoin="round"/>
<path d="M278 451C278 443 277.982 435 278.012 427C278.02 424.737 277.498 422.306 279.507 420.508C280.511 419.61 280.294 418.143 279.918 417.553C275.6 410.785 277.725 403.213 276.909 396.011C276.289 390.542 278.574 385.915 280.411 380.909C276.36 379.022 272.386 379.186 268.507 379.566C264.494 379.959 265.46 383.784 266.168 385.428C270.138 394.65 266.924 404.196 268 413.5C263.925 419.052 267.062 424.887 267.633 430.487C268.39 437.908 266.498 445.151 266.998 452.501C267.123 454.338 266.657 456.229 267.5 458" stroke="black" stroke-width="3" stroke-linecap="round" stroke-linejoin="round"/>
<path d="M1071.5 366.5C1071.33 379.564 1065.82 392.216 1068.49 405.502C1068.56 405.822 1068.64 406.263 1068.48 406.486C1064.08 412.725 1068.99 419.129 1068.17 425.521C1067.39 431.588 1068 437.833 1068 444" stroke="black" stroke-width="3" stroke-linecap="round" stroke-linejoin="round"/>
<path d="M323.998 288.5C322.933 301.494 326.599 314.125 326.96 327.001C327.17 334.495 326.986 342 327.004 349.5C327.011 352.82 326.146 356.451 330.508 358.205C325.245 366.267 327.02 374.697 327.472 383.001C327.507 383.657 327.165 384.333 326.998 385" stroke="black" stroke-width="3" stroke-linecap="round" stroke-linejoin="round"/>
<path d="M212.002 359.5C210.796 371.65 207.809 383.639 208.932 396.006C209.151 398.411 209.897 401.197 207.08 403.115C206.537 403.484 206.524 405.683 207.08 406.443C210.415 411.002 208.476 416.147 209.002 421" stroke="black" stroke-width="3" stroke-linecap="round" stroke-linejoin="round"/>
<path d="M782.5 413C776.167 417 769.903 421.116 763.485 424.975C751.909 431.935 739.977 438.256 728.021 444.54C719.575 448.979 710.153 450.685 701.475 454.442C700.834 454.719 699.829 454.004 699.001 454.025C687.499 454.314 675.952 453.196 664.504 455.027C661.475 455.512 658.465 456.212 655.518 457.064C654.444 457.374 653.269 457.733 652.873 459.471C652.425 461.43 650.763 463.079 650.049 465.018C648.535 469.127 645.726 469.755 642 468.5" stroke="black" stroke-width="5" stroke-linecap="round" stroke-linejoin="round"/>
<path d="M1404.5 370C1395.67 374.5 1386.75 378.839 1378.03 383.562C1372.97 386.308 1367.69 388.555 1362.24 390.988C1365.06 400.028 1357.2 400.032 1352.45 401.87C1337.61 407.612 1322.72 413.28 1307.5 418.012C1305.64 418.591 1303.83 419.333 1302 420" stroke="black" stroke-width="3" stroke-linecap="round" stroke-linejoin="round"/>
<path d="M1584.5 434C1572.4 430.978 1560.58 427.124 1549.01 422.483C1547.52 421.886 1546.14 420.927 1544.5 422" stroke="black" stroke-width="3" stroke-linecap="round" stroke-linejoin="round"/>
<path d="M628 318.5C631.067 323.576 630.864 329.603 632.758 335.083C634.999 341.566 636.317 348.426 638.432 355.022C638.755 356.031 638.167 357.333 638 358.5" stroke="black" stroke-width="3" stroke-linecap="round" stroke-linejoin="round"/>
<path d="M984.5 365C986.158 370.204 987.173 375.488 987.028 381.001C986.826 388.683 988.886 396.28 988 404" stroke="black" stroke-width="3" stroke-linecap="round" stroke-linejoin="round"/>
<path d="M925.001 447C925.001 435.164 925.001 423.328 925.001 410.989C921.261 409.591 916.912 407.966 911.501 405.944C911.501 412.798 911.439 419.15 911.532 425.499C911.57 428.016 910.8 430.682 912.501 433" stroke="black" stroke-width="3" stroke-linecap="round" stroke-linejoin="round"/>
<path d="M1372.5 394C1373.3 395.603 1373 397.326 1372.99 399C1372.84 415 1372.67 431 1372.5 447" stroke="black" stroke-width="3" stroke-linecap="round" stroke-linejoin="round"/>
<path d="M1337.5 408.5C1338.56 410.077 1337.93 411.84 1337.97 413.501C1338.2 424.666 1338.33 435.833 1338.5 447" stroke="black" stroke-width="3" stroke-linecap="round" stroke-linejoin="round"/>
<path d="M774.5 454C755.167 454.158 735.833 455.19 716.5 454" stroke="black" stroke-width="2" stroke-linecap="round" stroke-linejoin="round"/>
<path d="M1455.5 453C1454.4 461.315 1455.21 469.668 1455.05 478.001C1455 480.65 1456.88 480.509 1458.45 479.429C1459.27 478.869 1459.58 477.577 1460.53 475.889C1462.53 479.257 1464.84 479.927 1466.34 481.26C1466.22 483.16 1466.11 484.83 1466 486.5" stroke="black" stroke-width="3" stroke-linecap="round" stroke-linejoin="round"/>
<path d="M347.501 426.5C347.335 422 347.17 417.5 347.001 413C346.874 409.623 347.718 406.274 350.086 404.092C354.687 399.853 353.753 394.123 354.924 388.982C355.393 386.923 354.927 384.663 355.035 382.502C355.084 381.505 354.328 380.024 355.523 379.555C362.028 377.004 363.031 370.062 366.92 365.432C377.151 353.253 389.734 348.634 405.518 350.879C421.148 353.102 431.073 361.584 436.501 376" stroke="black" stroke-width="3" stroke-linecap="round" stroke-linejoin="round"/>
<path d="M467.5 359.5C464.722 360.614 461.826 359.706 459 360.002C455.703 360.346 453.663 361.459 453.91 365.505C454.318 372.172 454.014 378.867 453 385.5" stroke="black" stroke-width="3" stroke-linecap="round" stroke-linejoin="round"/>
<path d="M528.999 377.5C526.832 378.142 524.74 377.963 522.481 377.616C519.223 377.116 517.813 379.212 519.031 382.488C522.5 391.819 521.131 401.532 520.617 410.979C520.435 414.314 518.344 417.764 519.499 421.5" stroke="black" stroke-width="3" stroke-linecap="round" stroke-linejoin="round"/>
<path d="M624.002 318.5C621.002 328.833 617.941 339.15 615.041 349.511C614.228 352.415 612.423 355.288 614.002 358.5" stroke="black" stroke-width="3" stroke-linecap="round" stroke-linejoin="round"/>
<path d="M1260 332.5C1261.37 340.019 1257.08 346.96 1257.89 354.512C1258.45 359.785 1258.08 365.168 1257.96 370.499C1257.91 372.89 1259.07 375.751 1255.55 377.127C1254.8 377.42 1254.79 379.174 1255.44 380.527C1258.76 387.36 1255.78 394.994 1258 402C1257.17 402.171 1257.84 403.344 1256.53 403.648C1254.51 404.122 1254.38 406.759 1255.11 407.929C1258.35 413.073 1256.51 418.646 1256.97 424.002C1257.11 425.57 1257.14 427.117 1258 428.5" stroke="black" stroke-width="3" stroke-linecap="round" stroke-linejoin="round"/>
<path d="M901.5 402.5C900.678 414.333 900.677 426.167 901.5 438" stroke="black" stroke-width="3" stroke-linecap="round" stroke-linejoin="round"/>
<path d="M1138 331.5C1135.74 338.779 1139.76 345.444 1140.31 352.476C1140.68 357.151 1140.51 361.846 1141.02 366.498C1141.34 369.402 1139.71 372.753 1142.96 375.059C1143.27 375.283 1143.24 376.464 1142.97 376.98C1139.18 384.001 1142.05 391.748 1140.5 399" stroke="black" stroke-width="3" stroke-linecap="round" stroke-linejoin="round"/>
<path d="M483.5 451C494.226 459.549 506.908 456.532 519 457" stroke="black" stroke-width="3" stroke-linecap="round" stroke-linejoin="round"/>
<path d="M1316 453.5C1316 464.333 1316.05 475.167 1315.97 486C1315.94 488.988 1316.54 491.212 1320 491.5" stroke="black" stroke-width="3" stroke-linecap="round" stroke-linejoin="round"/>
<path d="M878.502 393C877.356 403.818 878.217 414.667 878.039 425.501C877.921 432.666 877.493 439.853 878.502 447" stroke="black" stroke-width="3" stroke-linecap="round" stroke-linejoin="round"/>
<path d="M1035 392C1036.25 396.048 1035.44 398.471 1031.09 400.682C1022.49 405.062 1018.14 412.696 1018.01 422.5C1017.96 426.499 1018 430.5 1018 434.5" stroke="black" stroke-width="3" stroke-linecap="round" stroke-linejoin="round"/>
<path d="M1361.5 399C1362.59 405.811 1361.79 412.668 1361.97 419.501C1362.11 424.33 1362 429.167 1362 434" stroke="black" stroke-width="3" stroke-linecap="round" stroke-linejoin="round"/>
<path d="M1072 377.5C1073.35 381.042 1074.02 384.703 1074.01 388.5C1073.98 393.833 1074 399.167 1074 404.5C1074 405.5 1073.58 406.844 1074.07 407.447C1078.81 413.285 1073.96 419.476 1074.77 425.531C1075.55 431.391 1075.79 437.581 1074 443.5" stroke="black" stroke-width="3" stroke-linecap="round" stroke-linejoin="round"/>
<path d="M1326.5 412.5C1327.65 422.15 1326.68 431.836 1327.01 441.5C1327.07 443.34 1326.66 445.228 1327.5 447" stroke="black" stroke-width="3" stroke-linecap="round" stroke-linejoin="round"/>
<path d="M911 406C908.05 403.475 910.554 400.323 910.149 397.479C909.566 393.389 910 389.154 910 384.5C902.675 384.5 895.837 384.5 889 384.5" stroke="black" stroke-width="3" stroke-linecap="round" stroke-linejoin="round"/>
<path d="M1261 341.5C1263.73 352.005 1264.23 362.717 1264.02 373.5C1263.99 374.888 1263.33 376.328 1264.94 377.573C1266.07 378.446 1266.66 380.025 1265.49 381.496C1262.99 384.656 1262.76 388.25 1263.51 391.997C1264.45 396.647 1262.79 401.742 1265.96 406.031C1266.28 406.463 1266.25 407.485 1265.96 407.977C1262.26 414.194 1264.71 421.004 1264 427.5" stroke="black" stroke-width="3" stroke-linecap="round" stroke-linejoin="round"/>
<path d="M178.502 388.5C178.502 390.167 178.549 391.835 178.492 393.5C178.368 397.069 179.778 399.005 183.47 400.107C191.96 402.642 198.958 407.48 204.067 414.956C205.611 417.215 204.89 420.683 208.002 422" stroke="black" stroke-width="3" stroke-linecap="round" stroke-linejoin="round"/>
<path d="M477.5 384C475.667 384.333 473.846 384.795 471.997 384.972C468.592 385.299 466.391 387.775 468.142 390.406C471.521 395.483 469.717 400.829 469.898 406.004C470.248 415.991 470.013 426 469.989 436C469.984 437.837 469.831 439.673 469.752 441.377C463.167 442.217 456.836 442.278 450.494 441.551C450.038 441.498 449.5 442.167 449 442.5" stroke="black" stroke-width="3" stroke-linecap="round" stroke-linejoin="round"/>
<path d="M1353.5 402.5C1354.67 412.817 1354.29 423.206 1353.69 433.482C1353.45 437.524 1351.74 441.684 1352 446" stroke="black" stroke-width="3" stroke-linecap="round" stroke-linejoin="round"/>
<path d="M1104 350.5C1102.32 355.364 1102.58 360.503 1102.11 365.51C1101.63 370.631 1101.62 375.872 1102.15 380.985C1102.44 383.905 1099.21 385.443 1100.09 387.969C1100.89 390.289 1102.21 392.36 1102.04 395.003C1101.86 397.991 1102.02 401 1102 404C1101.97 407.171 1102.85 410.671 1098.59 411.934C1099.57 414.205 1100.35 415.828 1100.98 417.506C1101.98 420.125 1102.23 422.601 1099.51 424.51C1093.28 428.875 1091.5 435.501 1090.5 442.5" stroke="black" stroke-width="3" stroke-linecap="round" stroke-linejoin="round"/>
<path d="M1228 362C1226.16 362 1224.32 362 1222 362C1222 370.493 1222.07 378.497 1221.96 386.5C1221.92 389.629 1221 392.428 1223.23 395.687C1224.73 397.89 1226.04 397.084 1228.43 397.842C1226.72 392.025 1230.28 386.192 1226.07 380.947C1225.58 380.339 1225.6 378.41 1226.06 378.096C1229.06 376.065 1227.92 373.097 1227.96 370.499C1228.06 362.374 1228.82 354.353 1231 346.5" stroke="black" stroke-width="3" stroke-linecap="round" stroke-linejoin="round"/>
<path d="M140.501 354.5C139.737 360.335 141.483 365.854 142.395 371.517C143.855 380.593 144.905 389.77 143.501 399" stroke="black" stroke-width="3" stroke-linecap="round" stroke-linejoin="round"/>
<path d="M139.999 366C137.163 376.362 135.77 386.814 137.966 397.507C138.058 397.954 137.666 398.5 137.499 399" stroke="black" stroke-width="3" stroke-linecap="round" stroke-linejoin="round"/>
<path d="M1349.5 404C1350.62 412.982 1349.68 422.003 1350.01 431C1350.08 432.869 1349.45 434.887 1351 436.5" stroke="black" stroke-width="3" stroke-linecap="round" stroke-linejoin="round"/>
<path d="M308.5 454C305.069 457.041 300.834 457.87 296.499 457.954C288.336 458.113 280.166 457.953 272 458.036C270.151 458.054 268.081 457.28 266.663 458.793C267.025 465.667 267.492 472.333 266.5 479" stroke="black" stroke-width="3" stroke-linecap="round" stroke-linejoin="round"/>
<path d="M611 371.5C621.667 372.323 632.333 372.323 643 371.5" stroke="black" stroke-width="3" stroke-linecap="round" stroke-linejoin="round"/>
<path d="M1078.5 446C1082.37 448.993 1086.84 447.22 1091 447.403C1096.32 447.636 1101.67 447.16 1107 447.005C1108.26 446.968 1109.58 447.208 1110.5 446" stroke="black" stroke-width="3" stroke-linecap="round" stroke-linejoin="round"/>
<path d="M125.002 368.5C122.165 376.27 121.71 384.335 121.988 392.5C122.074 394.998 122.002 397.5 122.002 400" stroke="black" stroke-width="3" stroke-linecap="round" stroke-linejoin="round"/>
<path d="M1063 454C1063.71 459.021 1061.21 464.575 1065.51 469.602C1067.98 466.895 1066.76 464.033 1066.96 461.497C1067.15 459.012 1067 456.5 1067 454" stroke="black" stroke-width="3" stroke-linecap="round" stroke-linejoin="round"/>
<path d="M881 455C881 458.841 881 462.681 881 466.75C884.167 466.75 886.833 466.75 890 466.75C890 462.681 890 458.841 890 455" stroke="black" stroke-width="3" stroke-linecap="round" stroke-linejoin="round"/>
<path d="M1137 342.5C1134.59 346.388 1135.95 350.889 1135.32 355.049C1134.38 361.191 1134.39 367.691 1135.5 374" stroke="black" stroke-width="3" stroke-linecap="round" stroke-linejoin="round"/>
<path d="M1314.5 416.5C1316.34 426.617 1315.17 436.833 1315.5 447" stroke="black" stroke-width="4" stroke-linecap="round" stroke-linejoin="round"/>
<path d="M1354 453C1354.17 463.167 1354.33 473.333 1354.5 483.5" stroke="black" stroke-width="3" stroke-linecap="round" stroke-linejoin="round"/>
<path d="M956 418C946 414.167 935.972 410.403 926.012 406.471C920.946 404.471 916 402.167 911 400" stroke="black" stroke-width="3" stroke-linecap="round" stroke-linejoin="round"/>
<path d="M754.5 455.5C755.786 464.167 754.613 472.833 755.108 482.339C749.69 480.652 744.838 481.033 740 481" stroke="black" stroke-width="3" stroke-linecap="round" stroke-linejoin="round"/>
<path d="M433 377C429.896 372.347 424.577 375.067 420.594 374.541C412.558 373.479 404.17 371.861 395.967 374.2C393.128 375.009 390.601 372.459 387.952 373.644C382.64 376.019 376.575 373.545 371.163 376.272C368.529 377.599 365.081 375.719 362 375.302" stroke="black" stroke-width="3" stroke-linecap="round" stroke-linejoin="round"/>
<path d="M1235 400.5C1236.31 401.908 1237.22 402.995 1237.27 405.495C1237.36 410.142 1239.74 414.642 1239.26 419.503C1250.56 419.36 1251.53 421.632 1251 430.5" stroke="black" stroke-width="3" stroke-linecap="round" stroke-linejoin="round"/>
<path d="M212 371C213.869 376.354 213.862 381.913 214.078 387.497C214.292 393.022 212.511 398.804 215.925 404.049C216.459 404.868 216.488 406.722 215.919 407.436C212.692 411.49 213.997 415.707 214.958 420.009C215.226 421.209 215.208 422.583 214 423.5" stroke="black" stroke-width="3" stroke-linecap="round" stroke-linejoin="round"/>
<path d="M844.5 365.5C857.833 372.833 871.104 380.284 884.524 387.456C892.479 391.707 900.567 395.735 909 399" stroke="black" stroke-width="3" stroke-linecap="round" stroke-linejoin="round"/>
<path d="M474.999 287.5C475.058 291.667 475.498 296.301 474.57 299.889C473.222 305.097 472.459 310.189 471.861 315.484C471.258 320.832 470.423 326.03 470.86 331.511C471.428 338.632 470.999 345.833 470.999 353" stroke="black" stroke-width="3" stroke-linecap="round" stroke-linejoin="round"/>
<path d="M245.001 370.5C243.47 378.092 242.815 385.745 242.928 393.501C242.97 396.388 244.255 399.707 241.068 402.089C240.588 402.448 240.63 404.211 241.059 404.967C244.982 411.878 244.359 420.064 242.379 426.302C240.35 432.694 243.501 437.515 242.94 442.994C242.649 445.838 244.492 449.106 241.501 451.5" stroke="black" stroke-width="3" stroke-linecap="round" stroke-linejoin="round"/>
<path d="M775 449C762.333 449 749.665 449.11 737.001 448.933C733.175 448.88 729.18 450.093 725.5 448" stroke="black" stroke-width="3" stroke-linecap="round" stroke-linejoin="round"/>
<path d="M641.502 365.5C641.182 363.498 640.862 361.496 640.464 359C632.175 359 623.836 359.112 615.503 358.955C611.026 358.871 610.253 361.404 610.429 365.5C616.826 365.5 623.219 364.995 629.484 365.67C633.982 366.155 638.692 364.793 643.002 367" stroke="black" stroke-width="4" stroke-linecap="round" stroke-linejoin="round"/>
<path d="M322.999 302C320.747 304.648 321.673 308.134 321.28 311.038C320.029 320.281 318.403 329.568 318.97 339.002C319.23 343.344 318.704 347.716 319.922 352.022C320.259 353.213 320.112 355.494 319.426 355.864C315.27 358.107 317.706 360.752 318.445 363.514C319.761 368.431 318.718 373.503 318.988 378.501C319.107 380.707 318.663 382.988 319.999 385" stroke="black" stroke-width="3" stroke-linecap="round" stroke-linejoin="round"/>
<path d="M481 427C486.44 423.102 491.821 425.064 496.406 428.139C501.606 431.626 503.848 437.517 504.897 443.518C505.563 447.327 502.863 449.796 498.499 449.967C492.417 450.206 486.427 448.57 480.486 448.316C473.382 448.011 466.651 444.734 459.506 446.035C453.012 447.218 448.081 444.169 444.084 439.921C436.63 432.002 433.325 432.086 424.246 441.256C422.337 439.344 420.495 437.337 418.484 435.518C414.738 432.13 409.733 432.005 405.494 434.991C403.227 436.587 400.897 438.094 398.603 439.636C392.06 431.006 386.441 429.997 375.735 439.741C373.8 437.884 372.461 435.354 370.008 433.985C366.565 432.062 359.974 432.436 357.579 435.561C350.38 444.957 340.936 448.287 329.5 447" stroke="black" stroke-width="3" stroke-linecap="round" stroke-linejoin="round"/>
<path d="M936 416C936 424.5 936.012 433 935.987 441.5C935.983 442.843 936.324 444.249 935.5 445.5" stroke="black" stroke-width="3" stroke-linecap="round" stroke-linejoin="round"/>
<path d="M674.5 455C675.099 456.628 676.369 457.083 677.977 457.574C683.564 459.279 688.423 462.611 691.825 467.132C694.372 470.515 696.807 470.352 700 469.5" stroke="black" stroke-width="3" stroke-linecap="round" stroke-linejoin="round"/>
<path d="M127.502 427.5C125.339 428.81 121.978 426.767 120.383 430.261C124.118 436.605 121.699 443.685 121.807 450.503C121.884 455.294 121.665 460.167 121.502 465" stroke="black" stroke-width="3" stroke-linecap="round" stroke-linejoin="round"/>
<path d="M947.498 419.5C946.368 428.649 947.303 437.836 946.998 447" stroke="black" stroke-width="3" stroke-linecap="round" stroke-linejoin="round"/>
<path d="M1278 425C1268.66 426.227 1259.58 428.715 1250.54 431.139C1239.77 434.026 1228.8 436.109 1217.93 438.105C1208.65 439.808 1199.02 440.754 1189.53 441.776C1178.69 442.944 1167.83 443.105 1157 444.034C1156.15 444.108 1155.33 444.667 1154.5 445" stroke="black" stroke-width="4" stroke-linecap="round" stroke-linejoin="round"/>
<path d="M1296.5 419C1299.53 418.787 1302.49 418.71 1302.5 423C1302.51 431 1302.5 439 1302.5 447" stroke="black" stroke-width="4" stroke-linecap="round" stroke-linejoin="round"/>
<path d="M1134.5 373.5C1131.65 374.294 1130.84 376.8 1132.63 378.351C1135.63 380.954 1134.92 383.966 1134.98 387C1135.06 390.999 1135 395 1135 399" stroke="black" stroke-width="3" stroke-linecap="round" stroke-linejoin="round"/>
<path d="M979 389.5C978.056 397.104 980.345 402.086 988.421 404.741C994.36 406.693 997.916 417.029 996.539 423.508C996.125 425.456 996.167 427.5 996 429.5" stroke="black" stroke-width="3" stroke-linecap="round" stroke-linejoin="round"/>
<path d="M844 374.5C855.167 380.167 865.841 387.421 877.631 391.078C890.868 395.184 890.257 404.189 889.386 413.99C888.674 422.016 889.233 430.001 889.011 438C888.937 440.675 889.171 443.365 888.392 445.885C890.757 448.685 893.68 447.541 896.5 447.551C906.667 447.588 916.833 447.88 927 447.963C929.18 447.981 931.543 448.693 933.5 447" stroke="black" stroke-width="3" stroke-linecap="round" stroke-linejoin="round"/>
<path d="M317.999 427.5C312.499 424.135 306.776 423.744 301.559 427.582C295.837 431.792 291.914 437.323 292.499 445" stroke="black" stroke-width="3" stroke-linecap="round" stroke-linejoin="round"/>
<path d="M1431 353.5C1423.83 358 1416.69 362.537 1409.47 366.95C1408.63 367.462 1407.8 368.576 1406.5 368" stroke="black" stroke-width="3" stroke-linecap="round" stroke-linejoin="round"/>
<path d="M565 406C558.613 406.677 552.354 404.895 546 405.02C544.164 405.056 542.333 405.333 540.5 405.5" stroke="black" stroke-width="3" stroke-linecap="round" stroke-linejoin="round"/>
<path d="M478.002 353.5C476.23 354.343 474.334 354.046 472.503 353.969C468.32 353.792 466.582 355.324 468.1 358.959C471.5 367.098 470.898 375.559 471.002 384" stroke="black" stroke-width="3" stroke-linecap="round" stroke-linejoin="round"/>
<path d="M288.501 452C288.04 446.393 288.977 445.728 294.504 445.931C301.993 446.208 309.501 446 317.001 446" stroke="black" stroke-width="3" stroke-linecap="round" stroke-linejoin="round"/>
<path d="M1128.5 417.5C1128.78 420.858 1126.91 423.256 1124.46 424.942C1118.97 428.714 1114.36 433.107 1112 439.5" stroke="black" stroke-width="3" stroke-linecap="round" stroke-linejoin="round"/>
<path d="M1231.5 336.5C1231.5 336.667 1231.5 336.833 1231.5 337C1231.64 348.717 1235.19 360.181 1234.05 372.005C1233.87 373.891 1233.35 376.045 1235.48 377.534C1236.68 378.381 1236.33 380.184 1235.91 380.947C1232.44 387.127 1234.24 393.605 1234.46 400.001C1234.47 400.323 1233.83 400.667 1233.5 401" stroke="black" stroke-width="3" stroke-linecap="round" stroke-linejoin="round"/>
<path d="M1293.5 423.5C1293.5 431.333 1293.5 439.167 1293.5 447" stroke="black" stroke-width="4" stroke-linecap="round" stroke-linejoin="round"/>
<path d="M967 423.5C966.291 430.333 966.134 437.163 966.961 444.005C967.077 444.971 966.667 446 966.5 447" stroke="black" stroke-width="4" stroke-linecap="round" stroke-linejoin="round"/>
<path d="M584.5 450C582.484 444.587 579.455 439.983 573.988 437.527C571.056 436.209 567.359 433.501 565.137 434.356C560.864 436 556.072 437.036 552.447 440.443C549.198 443.497 546.927 447.091 545 451" stroke="black" stroke-width="3" stroke-linecap="round" stroke-linejoin="round"/>
<path d="M806 398.5C800.537 400.921 796.383 405.238 791.527 408.54C788.969 410.28 786.532 412.15 783.5 413" stroke="black" stroke-width="3" stroke-linecap="round" stroke-linejoin="round"/>
<path d="M444 396C446 400.833 448.19 405.599 449.946 410.519C451.684 415.387 451.117 420.474 450.5 425.5" stroke="black" stroke-width="3" stroke-linecap="round" stroke-linejoin="round"/>
<path d="M830.001 429.5C826.097 427.538 822.345 425.434 818.945 422.566C813.497 417.968 812.173 417.821 806.543 421.563C799.666 426.133 793.63 431.955 785.031 433.653C782.368 434.178 783.729 437.432 783.501 439.5" stroke="black" stroke-width="3" stroke-linecap="round" stroke-linejoin="round"/>
<path d="M806.5 392C808.219 395.935 806.665 400.002 806.967 404.003C807.392 409.656 806.371 415.362 807.5 421" stroke="black" stroke-width="3" stroke-linecap="round" stroke-linejoin="round"/>
<path d="M830 376.5C823.78 381.411 819.007 387.891 812.531 392.543C811.056 393.603 809.74 394.859 808 395.5" stroke="black" stroke-width="3" stroke-linecap="round" stroke-linejoin="round"/>
<path d="M1194 367.5C1195.43 370.064 1197.76 371.157 1200.48 372.063C1209.44 375.045 1216.66 380.148 1220 389.5" stroke="black" stroke-width="3" stroke-linecap="round" stroke-linejoin="round"/>
<path d="M503 447C496.096 444.649 489.055 445.184 482 446" stroke="black" stroke-width="4" stroke-linecap="round" stroke-linejoin="round"/>
<path d="M1294.5 418.5C1288.71 419.003 1283.08 419.974 1278.64 423.254C1280.09 431.612 1279.25 439.33 1279.5 447" stroke="black" stroke-width="4" stroke-linecap="round" stroke-linejoin="round"/>
<path d="M442 395C443.635 395.302 443.641 393.657 443.915 392.966C445.748 388.336 448.655 385.692 452 386C456.662 386.428 461.83 391.477 461.956 396.001C462.03 398.661 461.667 401.333 461.5 404" stroke="black" stroke-width="3" stroke-linecap="round" stroke-linejoin="round"/>
<path d="M977.999 426.5C976.23 433.294 976.856 440.147 977.499 447" stroke="black" stroke-width="3" stroke-linecap="round" stroke-linejoin="round"/>
<path d="M440 393C440 388.334 439.981 383.667 440.012 379.001C440.022 377.581 439.106 377.466 438.07 376.878C436.283 375.863 434.967 376.697 434.058 377.561C430.225 381.201 430.391 390.316 436.527 391.899C441.431 393.164 442.158 396.065 442.126 400.501C442.088 405.664 443 410.834 443.5 416" stroke="black" stroke-width="3" stroke-linecap="round" stroke-linejoin="round"/>
<path d="M429 468.5C428.686 461.46 423.483 459.122 418.004 456.99C408.89 453.444 398.943 458.512 396.5 468" stroke="black" stroke-width="3" stroke-linecap="round" stroke-linejoin="round"/>
<path d="M683 358.5C685.267 362.411 683.035 366.967 684.894 371.048C685.832 373.106 685.667 375.667 686 378" stroke="black" stroke-width="3" stroke-linecap="round" stroke-linejoin="round"/>
<path d="M276 458.5C276.5 465 277 471.5 277.5 478" stroke="black" stroke-width="3" stroke-linecap="round" stroke-linejoin="round"/>
<path d="M625.5 289.5C627.565 298.465 625.771 307.501 626 316.5" stroke="black" stroke-width="5" stroke-linecap="round" stroke-linejoin="round"/>
<path d="M1268 427.5C1268.3 433.997 1267.37 440.525 1268.5 447" stroke="black" stroke-width="3" stroke-linecap="round" stroke-linejoin="round"/>
<path d="M276 457.5C276 451.873 276.005 451.77 281.499 452.023C290.503 452.438 299.497 453.076 308.502 453.455C311.323 453.574 314.167 453.167 317 453" stroke="black" stroke-width="3" stroke-linecap="round" stroke-linejoin="round"/>
<path d="M1385 453.5C1385.25 459.831 1384.45 466.19 1385.5 472.5" stroke="black" stroke-width="3" stroke-linecap="round" stroke-linejoin="round"/>
<path d="M959 421C957.507 422.562 957.306 424.5 957.511 426.499C958.142 432.638 957.089 438.364 953.5 443.5" stroke="black" stroke-width="4" stroke-linecap="round" stroke-linejoin="round"/>
<path d="M353 401.5C355.155 407.399 353.456 413.512 354 419.5" stroke="black" stroke-width="3" stroke-linecap="round" stroke-linejoin="round"/>
<path d="M988.999 429.5C987.998 435.309 988.714 441.168 988.499 447" stroke="black" stroke-width="4" stroke-linecap="round" stroke-linejoin="round"/>
<path d="M520.5 458.5C517.687 464.135 519.534 470.17 519 476" stroke="black" stroke-width="3" stroke-linecap="round" stroke-linejoin="round"/>
<path d="M782.5 436C776 436 776.054 436.001 775.968 442.5C775.941 444.497 776.549 446.574 775.5 448.5" stroke="black" stroke-width="3" stroke-linecap="round" stroke-linejoin="round"/>
<path d="M128.501 400.5C125.658 400.5 122.816 400.5 119.946 400.5C119.728 401.478 119.35 402.134 119.54 402.479C123.398 409.491 121.907 417.081 122.022 424.5C122.04 425.669 122.334 426.833 122.501 428" stroke="black" stroke-width="3" stroke-linecap="round" stroke-linejoin="round"/>
<path d="M783 455C783 460.5 783 466 783 471.5" stroke="black" stroke-width="3" stroke-linecap="round" stroke-linejoin="round"/>
<path d="M1256 430.5C1256.29 435.996 1255.4 441.528 1256.5 447" stroke="black" stroke-width="3" stroke-linecap="round" stroke-linejoin="round"/>
<path d="M754 431.5C755.874 436.948 755.068 442.478 754.5 448" stroke="black" stroke-width="3" stroke-linecap="round" stroke-linejoin="round"/>
<path d="M1473.5 489C1474.65 485.792 1478.45 486.324 1479.33 487.177C1484.24 491.979 1489.98 489.897 1495.5 490.058C1497.83 490.126 1500.4 489.044 1502.5 491" stroke="black" stroke-width="3" stroke-linecap="round" stroke-linejoin="round"/>
<path d="M859 361C854.833 360.666 850.67 360.28 846.498 360.027C844.911 359.93 845.122 361.955 844 362.5" stroke="black" stroke-width="4" stroke-linecap="round" stroke-linejoin="round"/>
<path d="M933 442.5C932.22 441.278 932.024 439.94 931.977 438.501C931.774 432.283 931.43 431.948 925 431" stroke="black" stroke-width="3" stroke-linecap="round" stroke-linejoin="round"/>
<path d="M1000 431.5C999.062 436.642 999.671 441.833 999.5 447" stroke="black" stroke-width="4" stroke-linecap="round" stroke-linejoin="round"/>
<path d="M273 303.5C273 308.667 273 313.833 273 319" stroke="black" stroke-width="3" stroke-linecap="round" stroke-linejoin="round"/>
<path d="M841 500C836.667 500 832.328 500.126 828.002 499.96C824.56 499.828 821.627 500.054 821.5 504.5C821.455 506.078 820.241 505.314 819.5 505.5" stroke="black" stroke-width="3" stroke-linecap="round" stroke-linejoin="round"/>
<path d="M978 399.5C976.784 401.31 974.97 402.143 973.044 403.09C969.392 404.884 966.895 408.215 964 411" stroke="black" stroke-width="3" stroke-linecap="round" stroke-linejoin="round"/>
<path d="M1060.5 446C1059.23 447.811 1057.31 447.498 1055.5 447.498C1037.83 447.501 1020.16 447.147 1002.5 447.616C989.331 447.966 976.167 447.868 963 447.96C955.335 448.013 947.667 447.631 940 447.531C938.537 447.512 937.437 447.036 936.5 446" stroke="black" stroke-width="4" stroke-linecap="round" stroke-linejoin="round"/>
<path d="M451.5 427C451.5 431.667 451.5 436.333 451.5 441" stroke="black" stroke-width="4" stroke-linecap="round" stroke-linejoin="round"/>
<path d="M1243 433.5C1244.6 437.947 1244.21 442.468 1243.5 447" stroke="black" stroke-width="3" stroke-linecap="round" stroke-linejoin="round"/>
<path d="M866.5 433.5C866.5 438 866.5 442.5 866.5 447" stroke="black" stroke-width="4" stroke-linecap="round" stroke-linejoin="round"/>
<path d="M854.5 433.5C854.667 438 854.833 442.5 855 447" stroke="black" stroke-width="3" stroke-linecap="round" stroke-linejoin="round"/>
<path d="M347.502 427C347.335 431 347.562 435.074 346.83 438.968C346.481 440.824 347.379 441.995 347.502 443.5" stroke="black" stroke-width="6" stroke-linecap="round" stroke-linejoin="round"/>
<path d="M332.5 440.5C337 441.372 341.5 441.269 346 440.5" stroke="black" stroke-width="3" stroke-linecap="round" stroke-linejoin="round"/>
<path d="M1011 434C1011 438.333 1011 442.667 1011 447" stroke="black" stroke-width="3" stroke-linecap="round" stroke-linejoin="round"/>
<path d="M1431 363.5C1409.47 377.112 1386.23 387.298 1363 397.5" stroke="black" stroke-width="3" stroke-linecap="round" stroke-linejoin="round"/>
<path d="M377.5 376C375.356 379.93 375.579 384.239 375.5 388.5" stroke="black" stroke-width="2" stroke-linecap="round" stroke-linejoin="round"/>
<path d="M1171.5 463.5C1171.69 467.512 1170.9 471.605 1172.5 475.5" stroke="black" stroke-width="4" stroke-linecap="round" stroke-linejoin="round"/>
<path d="M353.002 392.5C351.072 388.894 346.975 388.54 344.18 386.419C337.999 389.236 333.803 393.134 335.002 400.5" stroke="black" stroke-width="3" stroke-linecap="round" stroke-linejoin="round"/>
<path d="M923.999 430.5C918.964 428.564 915.652 432.786 911.234 433.731C912.875 438.253 911.179 442.743 912.499 447" stroke="black" stroke-width="3" stroke-linecap="round" stroke-linejoin="round"/>
<path d="M909 404.5C903.667 402.333 898.364 400.085 892.972 398.074C892.001 397.712 890.667 396.757 889.5 398" stroke="black" stroke-width="3" stroke-linecap="round" stroke-linejoin="round"/>
<path d="M1361.5 435C1362.31 439 1362.31 443 1361.5 447" stroke="black" stroke-width="3" stroke-linecap="round" stroke-linejoin="round"/>
<path d="M407.5 375C407.167 379 406.833 383 406.5 387" stroke="black" stroke-width="3" stroke-linecap="round" stroke-linejoin="round"/>
<path d="M599 454C593.833 455.454 588.667 455.677 583.5 454" stroke="black" stroke-width="3" stroke-linecap="round" stroke-linejoin="round"/>
<path d="M379 376.5C380.887 378.093 381.154 380.179 381.04 382.502C380.95 384.331 380.657 386.228 381.5 388" stroke="black" stroke-width="3" stroke-linecap="round" stroke-linejoin="round"/>
<path d="M358.5 379C359.885 382.742 358.08 386.761 359.5 390.5" stroke="black" stroke-width="3" stroke-linecap="round" stroke-linejoin="round"/>
<path d="M266 459.5C263.443 460.16 264.067 462.229 263.997 464C263.91 466.203 264.443 468.504 263 470.5" stroke="black" stroke-width="3" stroke-linecap="round" stroke-linejoin="round"/>
<path d="M1362 391.5C1358 393.163 1354 394.827 1349.65 396.634C1349.93 398.53 1350.21 400.515 1350.5 402.5" stroke="black" stroke-width="3" stroke-linecap="round" stroke-linejoin="round"/>
<path d="M926 411.5C932.167 413.5 938.352 415.444 944.493 417.519C948.727 418.95 952.709 420.305 957.498 420.339C963.008 420.378 968.528 422.904 973.994 424.519C987.977 428.649 1002.25 431.548 1016.51 434.448C1027.62 436.708 1038.8 438.754 1050.02 440.355C1053.68 440.876 1057.43 440.767 1061 442" stroke="black" stroke-width="6" stroke-linecap="round" stroke-linejoin="round"/>
<path d="M411.5 376C411.5 379.667 411.5 383.333 411.5 387" stroke="black" stroke-width="4" stroke-linecap="round" stroke-linejoin="round"/>
<path d="M1230 436C1230.25 439.663 1229.47 443.373 1230.5 447" stroke="black" stroke-width="3" stroke-linecap="round" stroke-linejoin="round"/>
<path d="M426 378C428.53 381.328 427.939 385.223 428 389" stroke="black" stroke-width="3" stroke-linecap="round" stroke-linejoin="round"/>
<path d="M369 378C371.397 381.408 368.896 385.484 370.5 389" stroke="black" stroke-width="3" stroke-linecap="round" stroke-linejoin="round"/>
<path d="M400 376C402.177 379.499 400.442 383.354 401 387" stroke="black" stroke-width="3" stroke-linecap="round" stroke-linejoin="round"/>
<path d="M421.012 376C423.188 379.499 421.454 383.354 422.012 387" stroke="black" stroke-width="3" stroke-linecap="round" stroke-linejoin="round"/>
<path d="M389 376C392.813 379.095 390.261 383.346 391 387" stroke="black" stroke-width="3" stroke-linecap="round" stroke-linejoin="round"/>
<path d="M397.499 376C395.51 379.426 394.221 382.98 395.499 387" stroke="black" stroke-width="3" stroke-linecap="round" stroke-linejoin="round"/>
<path d="M387.002 376.5C384.899 379.948 384.331 383.605 385.502 387.5" stroke="black" stroke-width="3" stroke-linecap="round" stroke-linejoin="round"/>
<path d="M418.511 376C416.521 379.426 415.233 382.98 416.511 387" stroke="black" stroke-width="3" stroke-linecap="round" stroke-linejoin="round"/>
<path d="M346.5 407C341.553 403.354 334.878 403.95 331.053 408.544C330.419 409.307 330.077 410.244 329 410.5" stroke="black" stroke-width="3" stroke-linecap="round" stroke-linejoin="round"/>
<path d="M911 434.5C905.268 435.638 900.519 439.497 894.531 440.246C892.959 440.443 891.173 440.7 889.5 441" stroke="black" stroke-width="3" stroke-linecap="round" stroke-linejoin="round"/>
<path d="M1024 436.5C1022.33 439.873 1023.22 443.49 1023 447" stroke="black" stroke-width="3" stroke-linecap="round" stroke-linejoin="round"/>
<path d="M367 378.5C365.653 380.997 365.103 383.772 365.088 386.5C365.07 389.509 364.266 391.063 361 391.06C359.167 391.059 357.333 391.667 355.5 392" stroke="black" stroke-width="3" stroke-linecap="round" stroke-linejoin="round"/>
<path d="M835.5 361C836.711 364.807 839.101 367.906 841.5 371" stroke="black" stroke-width="3" stroke-linecap="round" stroke-linejoin="round"/>
<path d="M888 423.5C885.801 423.161 883.471 421.936 882.372 425.46C882.031 426.551 880.167 427.166 879 428" stroke="black" stroke-width="3" stroke-linecap="round" stroke-linejoin="round"/>
<path d="M398.501 323.5C399.91 326.167 398.759 328.928 398.379 331.482C397.352 338.382 400.756 343.8 403.501 349.5" stroke="black" stroke-width="3" stroke-linecap="round" stroke-linejoin="round"/>
<path d="M398.5 341.5C394.526 342.976 393.7 346.304 393.5 350" stroke="black" stroke-width="3" stroke-linecap="round" stroke-linejoin="round"/>
<path d="M1383 439.5C1379.83 437.833 1376.67 436.167 1373.5 434.5" stroke="black" stroke-width="3" stroke-linecap="round" stroke-linejoin="round"/>
<path d="M1372 432.5C1369.54 430.824 1367.09 432.433 1365.06 433.164C1361.43 434.472 1357.77 435.364 1354 436" stroke="black" stroke-width="3" stroke-linecap="round" stroke-linejoin="round"/>
<path d="M469 409.5C466.333 407.666 463.876 404.941 460.941 404.253C458.063 403.579 454.507 403.152 451.5 405" stroke="black" stroke-width="3" stroke-linecap="round" stroke-linejoin="round"/>
<path d="M529.5 421.5C526.359 422.155 523.055 419.703 520 422" stroke="black" stroke-width="3" stroke-linecap="round" stroke-linejoin="round"/>
<path d="M268.5 414.5C271.5 415.331 274.5 415.331 277.5 414.5" stroke="black" stroke-width="3" stroke-linecap="round" stroke-linejoin="round"/>
<path d="M413 440.5C413.314 445.167 411.697 449.833 413 454.5" stroke="black" stroke-width="3" stroke-linecap="round" stroke-linejoin="round"/>
<path d="M876 431C873.108 433.241 869.508 430.996 866.5 432.5" stroke="black" stroke-width="3" stroke-linecap="round" stroke-linejoin="round"/>
<path d="M1034.5 439C1034.33 441.667 1034.17 444.333 1034 447" stroke="black" stroke-width="3" stroke-linecap="round" stroke-linejoin="round"/>
<path d="M1217.5 439C1217.87 441.667 1218.56 444.333 1217.5 447" stroke="black" stroke-width="3" stroke-linecap="round" stroke-linejoin="round"/>
<path d="M521.5 413C524.066 414.778 526.795 413.942 529.5 413.5" stroke="black" stroke-width="3" stroke-linecap="round" stroke-linejoin="round"/>
<path d="M327 355.5C324.501 355.84 322.095 356.878 319.5 356.5" stroke="black" stroke-width="3" stroke-linecap="round" stroke-linejoin="round"/>
<path d="M900.5 439.5C901.533 441.942 900.761 444.505 901 447" stroke="black" stroke-width="3" stroke-linecap="round" stroke-linejoin="round"/>
<path d="M309 416.5C308.833 419 308.667 421.5 308.5 424" stroke="black" stroke-width="3" stroke-linecap="round" stroke-linejoin="round"/>
<path d="M529 345C526.529 345.634 524.381 344.002 522 344" stroke="black" stroke-width="3" stroke-linecap="round" stroke-linejoin="round"/>
<path d="M956.5 440C956.833 442.333 957.167 444.667 957.5 447" stroke="black" stroke-width="3" stroke-linecap="round" stroke-linejoin="round"/>
<path d="M320 330C322.167 330.167 324.333 330.333 326.5 330.5" stroke="black" stroke-width="3" stroke-linecap="round" stroke-linejoin="round"/>
<path d="M643 452C644.954 453.359 647.622 452.396 649.5 454" stroke="black" stroke-width="3" stroke-linecap="round" stroke-linejoin="round"/>
<path d="M590 405.5C592.167 406.409 594.333 406.019 596.5 405.5" stroke="black" stroke-width="3" stroke-linecap="round" stroke-linejoin="round"/>
<path d="M366 389.928C375.425 390.41 384.698 388.315 394.076 388.214C404.019 388.107 413.984 387.432 423.906 388.757C425.621 388.986 426.904 388.214 428 387" stroke="black" stroke-width="3" stroke-linecap="round" stroke-linejoin="round"/>
<path d="M486.999 417.5C486.278 419.735 488.806 421.72 487.499 424" stroke="black" stroke-width="3" stroke-linecap="round" stroke-linejoin="round"/>
<path d="M519 450C514.838 449.615 510.543 450.879 506.5 449" stroke="black" stroke-width="3" stroke-linecap="round" stroke-linejoin="round"/>
<path d="M249 400C247.059 400.875 245.006 400.4 243 400.5" stroke="black" stroke-width="2" stroke-linecap="round" stroke-linejoin="round"/>
<path d="M1258 403.5C1260 404.249 1262 404.249 1264 403.5" stroke="black" stroke-width="3" stroke-linecap="round" stroke-linejoin="round"/>
<path d="M471.5 330C473.5 330 475.5 330 477.5 330" stroke="black" stroke-width="3" stroke-linecap="round" stroke-linejoin="round"/>
<path d="M249 428C247.061 428.901 245.001 428.346 243 428.5" stroke="black" stroke-width="2" stroke-linecap="round" stroke-linejoin="round"/>
<path d="M1205 441C1205.15 443.001 1204.6 445.061 1205.5 447" stroke="black" stroke-width="3" stroke-linecap="round" stroke-linejoin="round"/>
<path d="M1228.5 376.5C1230.33 377.43 1232.17 377.1 1234 376.5" stroke="black" stroke-width="3" stroke-linecap="round" stroke-linejoin="round"/>
<path d="M422.5 388C425.423 391.235 429.064 389.686 432.5 389.5" stroke="black" stroke-width="3" stroke-linecap="round" stroke-linejoin="round"/>
<path d="M1263 376C1261.23 376.842 1259.34 376.445 1257.5 376.5" stroke="black" stroke-width="2" stroke-linecap="round" stroke-linejoin="round"/>
<path d="M857.5 363.5C856.59 365.559 856.718 367.43 858.5 369" stroke="black" stroke-width="3" stroke-linecap="round" stroke-linejoin="round"/>
<path d="M1102.5 409.5C1104.06 410.778 1105.73 410.886 1107.5 410" stroke="black" stroke-width="2" stroke-linecap="round" stroke-linejoin="round"/>
<path d="M1141 373.5C1139.16 373.62 1137.47 375.384 1135.5 374" stroke="black" stroke-width="3" stroke-linecap="round" stroke-linejoin="round"/>
</g>
</g>
<defs>
<clipPath id="clip0_950_305">
<rect width="1584" height="525" fill="white"/>
</clipPath>
<clipPath id="clip1_950_305">
<rect width="1584" height="672" fill="white" transform="translate(0 81)"/>
</clipPath>
</defs>
</svg>
